<svg width="253" height="219" viewBox="0 0 253 219" fill="none" xmlns="http://www.w3.org/2000/svg">
<rect y="72.1249" width="102" height="102" rx="10" transform="rotate(-45 0 72.1249)" fill="#8154B1"/>
<rect x="54" y="72.1249" width="102" height="102" rx="10" transform="rotate(-45 54 72.1249)" fill="#C9B7EC"/>
<rect x="108" y="72.1249" width="102" height="102" rx="10" transform="rotate(-45 108 72.1249)" fill="#E0E2EE"/>
<path d="M71.71 167.605V170.195H65.06V192H61.875V170.195H55.19V167.605H71.71ZM83.9955 192.315C82.1989 192.315 80.5655 191.907 79.0955 191.09C77.6489 190.273 76.5055 189.118 75.6655 187.625C74.8489 186.108 74.4405 184.358 74.4405 182.375C74.4405 180.415 74.8605 178.688 75.7005 177.195C76.5639 175.678 77.7305 174.523 79.2005 173.73C80.6705 172.913 82.3155 172.505 84.1355 172.505C85.9555 172.505 87.6005 172.913 89.0705 173.73C90.5405 174.523 91.6955 175.667 92.5355 177.16C93.3989 178.653 93.8305 180.392 93.8305 182.375C93.8305 184.358 93.3872 186.108 92.5005 187.625C91.6372 189.118 90.4589 190.273 88.9655 191.09C87.4722 191.907 85.8155 192.315 83.9955 192.315ZM83.9955 189.515C85.1389 189.515 86.2122 189.247 87.2155 188.71C88.2189 188.173 89.0239 187.368 89.6305 186.295C90.2605 185.222 90.5755 183.915 90.5755 182.375C90.5755 180.835 90.2722 179.528 89.6655 178.455C89.0589 177.382 88.2655 176.588 87.2855 176.075C86.3055 175.538 85.2439 175.27 84.1005 175.27C82.9339 175.27 81.8605 175.538 80.8805 176.075C79.9239 176.588 79.1539 177.382 78.5705 178.455C77.9872 179.528 77.6955 180.835 77.6955 182.375C77.6955 183.938 77.9755 185.257 78.5355 186.33C79.1189 187.403 79.8889 188.208 80.8455 188.745C81.8022 189.258 82.8522 189.515 83.9955 189.515ZM96.8282 182.34C96.8282 180.38 97.2249 178.665 98.0182 177.195C98.8116 175.702 99.8966 174.547 101.273 173.73C102.673 172.913 104.237 172.505 105.963 172.505C107.457 172.505 108.845 172.855 110.128 173.555C111.412 174.232 112.392 175.13 113.068 176.25V166.1H116.288V192H113.068V188.395C112.438 189.538 111.505 190.483 110.268 191.23C109.032 191.953 107.585 192.315 105.928 192.315C104.225 192.315 102.673 191.895 101.273 191.055C99.8966 190.215 98.8116 189.037 98.0182 187.52C97.2249 186.003 96.8282 184.277 96.8282 182.34ZM113.068 182.375C113.068 180.928 112.777 179.668 112.193 178.595C111.61 177.522 110.817 176.705 109.813 176.145C108.833 175.562 107.748 175.27 106.558 175.27C105.368 175.27 104.283 175.55 103.303 176.11C102.323 176.67 101.542 177.487 100.958 178.56C100.375 179.633 100.083 180.893 100.083 182.34C100.083 183.81 100.375 185.093 100.958 186.19C101.542 187.263 102.323 188.092 103.303 188.675C104.283 189.235 105.368 189.515 106.558 189.515C107.748 189.515 108.833 189.235 109.813 188.675C110.817 188.092 111.61 187.263 112.193 186.19C112.777 185.093 113.068 183.822 113.068 182.375ZM130.036 192.315C128.239 192.315 126.606 191.907 125.136 191.09C123.689 190.273 122.546 189.118 121.706 187.625C120.889 186.108 120.481 184.358 120.481 182.375C120.481 180.415 120.901 178.688 121.741 177.195C122.604 175.678 123.771 174.523 125.241 173.73C126.711 172.913 128.356 172.505 130.176 172.505C131.996 172.505 133.641 172.913 135.111 173.73C136.581 174.523 137.736 175.667 138.576 177.16C139.439 178.653 139.871 180.392 139.871 182.375C139.871 184.358 139.427 186.108 138.541 187.625C137.677 189.118 136.499 190.273 135.006 191.09C133.512 191.907 131.856 192.315 130.036 192.315ZM130.036 189.515C131.179 189.515 132.252 189.247 133.256 188.71C134.259 188.173 135.064 187.368 135.671 186.295C136.301 185.222 136.616 183.915 136.616 182.375C136.616 180.835 136.312 179.528 135.706 178.455C135.099 177.382 134.306 176.588 133.326 176.075C132.346 175.538 131.284 175.27 130.141 175.27C128.974 175.27 127.901 175.538 126.921 176.075C125.964 176.588 125.194 177.382 124.611 178.455C124.027 179.528 123.736 180.835 123.736 182.375C123.736 183.938 124.016 185.257 124.576 186.33C125.159 187.403 125.929 188.208 126.886 188.745C127.842 189.258 128.892 189.515 130.036 189.515ZM156.574 189.41H165.114V192H153.389V167.605H156.574V189.41ZM170.142 169.705C169.535 169.705 169.022 169.495 168.602 169.075C168.182 168.655 167.972 168.142 167.972 167.535C167.972 166.928 168.182 166.415 168.602 165.995C169.022 165.575 169.535 165.365 170.142 165.365C170.725 165.365 171.215 165.575 171.612 165.995C172.032 166.415 172.242 166.928 172.242 167.535C172.242 168.142 172.032 168.655 171.612 169.075C171.215 169.495 170.725 169.705 170.142 169.705ZM171.682 172.82V192H168.497V172.82H171.682ZM183.9 192.315C182.43 192.315 181.112 192.07 179.945 191.58C178.778 191.067 177.857 190.367 177.18 189.48C176.503 188.57 176.13 187.532 176.06 186.365H179.35C179.443 187.322 179.887 188.103 180.68 188.71C181.497 189.317 182.558 189.62 183.865 189.62C185.078 189.62 186.035 189.352 186.735 188.815C187.435 188.278 187.785 187.602 187.785 186.785C187.785 185.945 187.412 185.327 186.665 184.93C185.918 184.51 184.763 184.102 183.2 183.705C181.777 183.332 180.61 182.958 179.7 182.585C178.813 182.188 178.043 181.617 177.39 180.87C176.76 180.1 176.445 179.097 176.445 177.86C176.445 176.88 176.737 175.982 177.32 175.165C177.903 174.348 178.732 173.707 179.805 173.24C180.878 172.75 182.103 172.505 183.48 172.505C185.603 172.505 187.318 173.042 188.625 174.115C189.932 175.188 190.632 176.658 190.725 178.525H187.54C187.47 177.522 187.062 176.717 186.315 176.11C185.592 175.503 184.612 175.2 183.375 175.2C182.232 175.2 181.322 175.445 180.645 175.935C179.968 176.425 179.63 177.067 179.63 177.86C179.63 178.49 179.828 179.015 180.225 179.435C180.645 179.832 181.158 180.158 181.765 180.415C182.395 180.648 183.258 180.917 184.355 181.22C185.732 181.593 186.852 181.967 187.715 182.34C188.578 182.69 189.313 183.227 189.92 183.95C190.55 184.673 190.877 185.618 190.9 186.785C190.9 187.835 190.608 188.78 190.025 189.62C189.442 190.46 188.613 191.125 187.54 191.615C186.49 192.082 185.277 192.315 183.9 192.315ZM199.281 175.445V186.75C199.281 187.683 199.48 188.348 199.876 188.745C200.273 189.118 200.961 189.305 201.941 189.305H204.286V192H201.416C199.643 192 198.313 191.592 197.426 190.775C196.54 189.958 196.096 188.617 196.096 186.75V175.445H193.611V172.82H196.096V167.99H199.281V172.82H204.286V175.445H199.281Z" fill="#484B5D"/>
<path d="M24.602 200.151V201.409H21.372V212H19.825V201.409H16.578V200.151H24.602ZM25.9283 207.308C25.9283 206.356 26.1209 205.523 26.5063 204.809C26.8916 204.084 27.4186 203.523 28.0873 203.126C28.7673 202.729 29.5209 202.531 30.3483 202.531C31.1643 202.531 31.8726 202.707 32.4733 203.058C33.0739 203.409 33.5216 203.851 33.8163 204.384V202.684H35.3803V212H33.8163V210.266C33.5103 210.81 33.0513 211.263 32.4393 211.626C31.8386 211.977 31.1359 212.153 30.3313 212.153C29.5039 212.153 28.7559 211.949 28.0873 211.541C27.4186 211.133 26.8916 210.561 26.5063 209.824C26.1209 209.087 25.9283 208.249 25.9283 207.308ZM33.8163 207.325C33.8163 206.622 33.6746 206.01 33.3913 205.489C33.1079 204.968 32.7226 204.571 32.2353 204.299C31.7593 204.016 31.2323 203.874 30.6543 203.874C30.0763 203.874 29.5493 204.01 29.0733 204.282C28.5973 204.554 28.2176 204.951 27.9343 205.472C27.6509 205.993 27.5093 206.605 27.5093 207.308C27.5093 208.022 27.6509 208.645 27.9343 209.178C28.2176 209.699 28.5973 210.102 29.0733 210.385C29.5493 210.657 30.0763 210.793 30.6543 210.793C31.2323 210.793 31.7593 210.657 32.2353 210.385C32.7226 210.102 33.1079 209.699 33.3913 209.178C33.6746 208.645 33.8163 208.028 33.8163 207.325ZM43.1965 212L39.5415 207.886V212H37.9945V199.42H39.5415V206.815L43.1285 202.684H45.2875L40.9015 207.325L45.3045 212H43.1965ZM55.2436 206.985C55.2436 207.28 55.2266 207.591 55.1926 207.92H47.7466C47.8032 208.838 48.1149 209.558 48.6816 210.079C49.2596 210.589 49.9566 210.844 50.7726 210.844C51.4412 210.844 51.9966 210.691 52.4386 210.385C52.8919 210.068 53.2092 209.648 53.3906 209.127H55.0566C54.8072 210.022 54.3086 210.753 53.5606 211.32C52.8126 211.875 51.8832 212.153 50.7726 212.153C49.8886 212.153 49.0952 211.955 48.3926 211.558C47.7012 211.161 47.1572 210.6 46.7606 209.875C46.3639 209.138 46.1656 208.288 46.1656 207.325C46.1656 206.362 46.3582 205.517 46.7436 204.792C47.1289 204.067 47.6672 203.511 48.3586 203.126C49.0612 202.729 49.8659 202.531 50.7726 202.531C51.6566 202.531 52.4386 202.724 53.1186 203.109C53.7986 203.494 54.3199 204.027 54.6826 204.707C55.0566 205.376 55.2436 206.135 55.2436 206.985ZM53.6456 206.662C53.6456 206.073 53.5152 205.568 53.2546 205.149C52.9939 204.718 52.6369 204.395 52.1836 204.18C51.7416 203.953 51.2486 203.84 50.7046 203.84C49.9226 203.84 49.2539 204.089 48.6986 204.588C48.1546 205.087 47.8429 205.778 47.7636 206.662H53.6456ZM61.2398 207.325C61.2398 206.362 61.4325 205.523 61.8178 204.809C62.2031 204.084 62.7358 203.523 63.4158 203.126C64.1071 202.729 64.8948 202.531 65.7788 202.531C66.9235 202.531 67.8641 202.809 68.6008 203.364C69.3488 203.919 69.8418 204.69 70.0798 205.676H68.4138C68.2551 205.109 67.9435 204.662 67.4788 204.333C67.0255 204.004 66.4588 203.84 65.7788 203.84C64.8948 203.84 64.1808 204.146 63.6368 204.758C63.0928 205.359 62.8208 206.214 62.8208 207.325C62.8208 208.447 63.0928 209.314 63.6368 209.926C64.1808 210.538 64.8948 210.844 65.7788 210.844C66.4588 210.844 67.0255 210.685 67.4788 210.368C67.9321 210.051 68.2438 209.597 68.4138 209.008H70.0798C69.8305 209.96 69.3318 210.725 68.5838 211.303C67.8358 211.87 66.9008 212.153 65.7788 212.153C64.8948 212.153 64.1071 211.955 63.4158 211.558C62.7358 211.161 62.2031 210.6 61.8178 209.875C61.4325 209.15 61.2398 208.3 61.2398 207.325ZM76.207 212.153C75.3343 212.153 74.541 211.955 73.827 211.558C73.1243 211.161 72.569 210.6 72.161 209.875C71.7643 209.138 71.566 208.288 71.566 207.325C71.566 206.373 71.77 205.534 72.178 204.809C72.5973 204.072 73.164 203.511 73.878 203.126C74.592 202.729 75.391 202.531 76.275 202.531C77.159 202.531 77.958 202.729 78.672 203.126C79.386 203.511 79.947 204.067 80.355 204.792C80.7743 205.517 80.984 206.362 80.984 207.325C80.984 208.288 80.7686 209.138 80.338 209.875C79.9186 210.6 79.3463 211.161 78.621 211.558C77.8956 211.955 77.091 212.153 76.207 212.153ZM76.207 210.793C76.7623 210.793 77.2836 210.663 77.771 210.402C78.2583 210.141 78.6493 209.75 78.944 209.229C79.25 208.708 79.403 208.073 79.403 207.325C79.403 206.577 79.2556 205.942 78.961 205.421C78.6663 204.9 78.281 204.514 77.805 204.265C77.329 204.004 76.8133 203.874 76.258 203.874C75.6913 203.874 75.17 204.004 74.694 204.265C74.2293 204.514 73.8553 204.9 73.572 205.421C73.2886 205.942 73.147 206.577 73.147 207.325C73.147 208.084 73.283 208.725 73.555 209.246C73.8383 209.767 74.2123 210.158 74.677 210.419C75.1416 210.668 75.6516 210.793 76.207 210.793ZM87.557 202.514C88.6903 202.514 89.6083 202.86 90.311 203.551C91.0137 204.231 91.365 205.217 91.365 206.509V212H89.835V206.73C89.835 205.801 89.6027 205.092 89.138 204.605C88.6733 204.106 88.0387 203.857 87.234 203.857C86.418 203.857 85.7663 204.112 85.279 204.622C84.803 205.132 84.565 205.874 84.565 206.849V212H83.018V202.684H84.565V204.01C84.871 203.534 85.2847 203.166 85.806 202.905C86.3387 202.644 86.9223 202.514 87.557 202.514ZM95.779 203.959V209.45C95.779 209.903 95.8753 210.226 96.068 210.419C96.2607 210.6 96.595 210.691 97.071 210.691H98.21V212H96.816C95.9547 212 95.3087 211.802 94.878 211.405C94.4473 211.008 94.232 210.357 94.232 209.45V203.959H93.025V202.684H94.232V200.338H95.779V202.684H98.21V203.959H95.779ZM101.631 204.197C101.903 203.664 102.289 203.251 102.787 202.956C103.297 202.661 103.915 202.514 104.64 202.514V204.112H104.232C102.498 204.112 101.631 205.053 101.631 206.934V212H100.084V202.684H101.631V204.197ZM110.489 212.153C109.617 212.153 108.823 211.955 108.109 211.558C107.407 211.161 106.851 210.6 106.443 209.875C106.047 209.138 105.848 208.288 105.848 207.325C105.848 206.373 106.052 205.534 106.46 204.809C106.88 204.072 107.446 203.511 108.16 203.126C108.874 202.729 109.673 202.531 110.557 202.531C111.441 202.531 112.24 202.729 112.954 203.126C113.668 203.511 114.229 204.067 114.637 204.792C115.057 205.517 115.266 206.362 115.266 207.325C115.266 208.288 115.051 209.138 114.62 209.875C114.201 210.6 113.629 211.161 112.903 211.558C112.178 211.955 111.373 212.153 110.489 212.153ZM110.489 210.793C111.045 210.793 111.566 210.663 112.053 210.402C112.541 210.141 112.932 209.75 113.226 209.229C113.532 208.708 113.685 208.073 113.685 207.325C113.685 206.577 113.538 205.942 113.243 205.421C112.949 204.9 112.563 204.514 112.087 204.265C111.611 204.004 111.096 203.874 110.54 203.874C109.974 203.874 109.452 204.004 108.976 204.265C108.512 204.514 108.138 204.9 107.854 205.421C107.571 205.942 107.429 206.577 107.429 207.325C107.429 208.084 107.565 208.725 107.837 209.246C108.121 209.767 108.495 210.158 108.959 210.419C109.424 210.668 109.934 210.793 110.489 210.793ZM118.847 199.42V212H117.3V199.42H118.847ZM130.079 212.153C129.206 212.153 128.413 211.955 127.699 211.558C126.996 211.161 126.441 210.6 126.033 209.875C125.636 209.138 125.438 208.288 125.438 207.325C125.438 206.373 125.642 205.534 126.05 204.809C126.469 204.072 127.036 203.511 127.75 203.126C128.464 202.729 129.263 202.531 130.147 202.531C131.031 202.531 131.83 202.729 132.544 203.126C133.258 203.511 133.819 204.067 134.227 204.792C134.646 205.517 134.856 206.362 134.856 207.325C134.856 208.288 134.641 209.138 134.21 209.875C133.791 210.6 133.218 211.161 132.493 211.558C131.768 211.955 130.963 212.153 130.079 212.153ZM130.079 210.793C130.634 210.793 131.156 210.663 131.643 210.402C132.13 210.141 132.521 209.75 132.816 209.229C133.122 208.708 133.275 208.073 133.275 207.325C133.275 206.577 133.128 205.942 132.833 205.421C132.538 204.9 132.153 204.514 131.677 204.265C131.201 204.004 130.685 203.874 130.13 203.874C129.563 203.874 129.042 204.004 128.566 204.265C128.101 204.514 127.727 204.9 127.444 205.421C127.161 205.942 127.019 206.577 127.019 207.325C127.019 208.084 127.155 208.725 127.427 209.246C127.71 209.767 128.084 210.158 128.549 210.419C129.014 210.668 129.524 210.793 130.079 210.793ZM140.681 203.959H138.726V212H137.179V203.959H135.972V202.684H137.179V202.021C137.179 200.978 137.445 200.219 137.978 199.743C138.522 199.256 139.389 199.012 140.579 199.012V200.304C139.899 200.304 139.417 200.44 139.134 200.712C138.862 200.973 138.726 201.409 138.726 202.021V202.684H140.681V203.959ZM155.041 202.684L149.431 216.386H147.833L149.669 211.898L145.912 202.684H147.629L150.553 210.232L153.443 202.684H155.041ZM160.659 212.153C159.786 212.153 158.993 211.955 158.279 211.558C157.576 211.161 157.021 210.6 156.613 209.875C156.216 209.138 156.018 208.288 156.018 207.325C156.018 206.373 156.222 205.534 156.63 204.809C157.049 204.072 157.616 203.511 158.33 203.126C159.044 202.729 159.843 202.531 160.727 202.531C161.611 202.531 162.41 202.729 163.124 203.126C163.838 203.511 164.399 204.067 164.807 204.792C165.226 205.517 165.436 206.362 165.436 207.325C165.436 208.288 165.221 209.138 164.79 209.875C164.371 210.6 163.798 211.161 163.073 211.558C162.348 211.955 161.543 212.153 160.659 212.153ZM160.659 210.793C161.214 210.793 161.736 210.663 162.223 210.402C162.71 210.141 163.101 209.75 163.396 209.229C163.702 208.708 163.855 208.073 163.855 207.325C163.855 206.577 163.708 205.942 163.413 205.421C163.118 204.9 162.733 204.514 162.257 204.265C161.781 204.004 161.265 203.874 160.71 203.874C160.143 203.874 159.622 204.004 159.146 204.265C158.681 204.514 158.307 204.9 158.024 205.421C157.741 205.942 157.599 206.577 157.599 207.325C157.599 208.084 157.735 208.725 158.007 209.246C158.29 209.767 158.664 210.158 159.129 210.419C159.594 210.668 160.104 210.793 160.659 210.793ZM175.732 202.684V212H174.185V210.623C173.89 211.099 173.477 211.473 172.944 211.745C172.423 212.006 171.845 212.136 171.21 212.136C170.485 212.136 169.833 211.989 169.255 211.694C168.677 211.388 168.218 210.935 167.878 210.334C167.549 209.733 167.385 209.002 167.385 208.141V202.684H168.915V207.937C168.915 208.855 169.147 209.563 169.612 210.062C170.077 210.549 170.711 210.793 171.516 210.793C172.343 210.793 172.995 210.538 173.471 210.028C173.947 209.518 174.185 208.776 174.185 207.801V202.684H175.732ZM179.891 204.197C180.163 203.664 180.548 203.251 181.047 202.956C181.557 202.661 182.175 202.514 182.9 202.514V204.112H182.492C180.758 204.112 179.891 205.053 179.891 206.934V212H178.344V202.684H179.891V204.197ZM191.105 203.959V209.45C191.105 209.903 191.202 210.226 191.394 210.419C191.587 210.6 191.921 210.691 192.397 210.691H193.536V212H192.142C191.281 212 190.635 211.802 190.204 211.405C189.774 211.008 189.558 210.357 189.558 209.45V203.959H188.351V202.684H189.558V200.338H191.105V202.684H193.536V203.959H191.105ZM194.833 207.308C194.833 206.356 195.025 205.523 195.411 204.809C195.796 204.084 196.323 203.523 196.992 203.126C197.672 202.729 198.425 202.531 199.253 202.531C200.069 202.531 200.777 202.707 201.378 203.058C201.978 203.409 202.426 203.851 202.721 204.384V202.684H204.285V212H202.721V210.266C202.415 210.81 201.956 211.263 201.344 211.626C200.743 211.977 200.04 212.153 199.236 212.153C198.408 212.153 197.66 211.949 196.992 211.541C196.323 211.133 195.796 210.561 195.411 209.824C195.025 209.087 194.833 208.249 194.833 207.308ZM202.721 207.325C202.721 206.622 202.579 206.01 202.296 205.489C202.012 204.968 201.627 204.571 201.14 204.299C200.664 204.016 200.137 203.874 199.559 203.874C198.981 203.874 198.454 204.01 197.978 204.282C197.502 204.554 197.122 204.951 196.839 205.472C196.555 205.993 196.414 206.605 196.414 207.308C196.414 208.022 196.555 208.645 196.839 209.178C197.122 209.699 197.502 210.102 197.978 210.385C198.454 210.657 198.981 210.793 199.559 210.793C200.137 210.793 200.664 210.657 201.14 210.385C201.627 210.102 202.012 209.699 202.296 209.178C202.579 208.645 202.721 208.028 202.721 207.325ZM210.197 212.153C209.483 212.153 208.843 212.034 208.276 211.796C207.709 211.547 207.262 211.207 206.933 210.776C206.604 210.334 206.423 209.83 206.389 209.263H207.987C208.032 209.728 208.248 210.107 208.633 210.402C209.03 210.697 209.545 210.844 210.18 210.844C210.769 210.844 211.234 210.714 211.574 210.453C211.914 210.192 212.084 209.864 212.084 209.467C212.084 209.059 211.903 208.759 211.54 208.566C211.177 208.362 210.616 208.164 209.857 207.971C209.166 207.79 208.599 207.608 208.157 207.427C207.726 207.234 207.352 206.957 207.035 206.594C206.729 206.22 206.576 205.733 206.576 205.132C206.576 204.656 206.718 204.22 207.001 203.823C207.284 203.426 207.687 203.115 208.208 202.888C208.729 202.65 209.324 202.531 209.993 202.531C211.024 202.531 211.857 202.792 212.492 203.313C213.127 203.834 213.467 204.548 213.512 205.455H211.965C211.931 204.968 211.733 204.577 211.37 204.282C211.019 203.987 210.543 203.84 209.942 203.84C209.387 203.84 208.945 203.959 208.616 204.197C208.287 204.435 208.123 204.747 208.123 205.132C208.123 205.438 208.219 205.693 208.412 205.897C208.616 206.09 208.865 206.248 209.16 206.373C209.466 206.486 209.885 206.617 210.418 206.764C211.087 206.945 211.631 207.127 212.05 207.308C212.469 207.478 212.826 207.739 213.121 208.09C213.427 208.441 213.586 208.9 213.597 209.467C213.597 209.977 213.455 210.436 213.172 210.844C212.889 211.252 212.486 211.575 211.965 211.813C211.455 212.04 210.866 212.153 210.197 212.153ZM220.983 212L217.328 207.886V212H215.781V199.42H217.328V206.815L220.915 202.684H223.074L218.688 207.325L223.091 212H220.983ZM227.828 212.153C227.114 212.153 226.473 212.034 225.907 211.796C225.34 211.547 224.892 211.207 224.564 210.776C224.235 210.334 224.054 209.83 224.02 209.263H225.618C225.663 209.728 225.878 210.107 226.264 210.402C226.66 210.697 227.176 210.844 227.811 210.844C228.4 210.844 228.865 210.714 229.205 210.453C229.545 210.192 229.715 209.864 229.715 209.467C229.715 209.059 229.533 208.759 229.171 208.566C228.808 208.362 228.247 208.164 227.488 207.971C226.796 207.79 226.23 207.608 225.788 207.427C225.357 207.234 224.983 206.957 224.666 206.594C224.36 206.22 224.207 205.733 224.207 205.132C224.207 204.656 224.348 204.22 224.632 203.823C224.915 203.426 225.317 203.115 225.839 202.888C226.36 202.65 226.955 202.531 227.624 202.531C228.655 202.531 229.488 202.792 230.123 203.313C230.757 203.834 231.097 204.548 231.143 205.455H229.596C229.562 204.968 229.363 204.577 229.001 204.282C228.649 203.987 228.173 203.84 227.573 203.84C227.017 203.84 226.575 203.959 226.247 204.197C225.918 204.435 225.754 204.747 225.754 205.132C225.754 205.438 225.85 205.693 226.043 205.897C226.247 206.09 226.496 206.248 226.791 206.373C227.097 206.486 227.516 206.617 228.049 206.764C228.717 206.945 229.261 207.127 229.681 207.308C230.1 207.478 230.457 207.739 230.752 208.09C231.058 208.441 231.216 208.9 231.228 209.467C231.228 209.977 231.086 210.436 230.803 210.844C230.519 211.252 230.117 211.575 229.596 211.813C229.086 212.04 228.496 212.153 227.828 212.153ZM233.905 212.102C233.61 212.102 233.361 212 233.157 211.796C232.953 211.592 232.851 211.343 232.851 211.048C232.851 210.753 232.953 210.504 233.157 210.3C233.361 210.096 233.61 209.994 233.905 209.994C234.188 209.994 234.426 210.096 234.619 210.3C234.823 210.504 234.925 210.753 234.925 211.048C234.925 211.343 234.823 211.592 234.619 211.796C234.426 212 234.188 212.102 233.905 212.102Z" fill="#484B5D"/>
</svg>
