<svg width="45" height="45" viewBox="0 0 45 45" fill="none" xmlns="http://www.w3.org/2000/svg">
<g clip-path="url(#clip0)">
<path d="M38.7567 6.92544C34.5095 2.49222 28.633 -0.0096715 22.4935 0.001625C10.0864 -0.0140018 0.0156141 10.0313 -1.27058e-05 22.4386C-0.00773198 28.5735 2.49388 34.4447 6.9238 38.6889C6.9367 38.7017 6.9415 38.721 6.9543 38.7323C7.0844 38.8576 7.2258 38.9636 7.35759 39.0841C7.71908 39.4054 8.08057 39.738 8.46135 40.0481C8.66535 40.2088 8.87744 40.3694 9.08633 40.5172C9.44622 40.7855 9.80611 41.0538 10.182 41.3013C10.4375 41.462 10.701 41.6226 10.9628 41.7833C11.3098 41.9921 11.6552 42.2025 12.0135 42.3937C12.3172 42.5544 12.6272 42.6925 12.9357 42.8387C13.2731 42.9994 13.6057 43.16 13.9511 43.3046C14.2965 43.4492 14.6435 43.5617 14.9937 43.687C15.3439 43.8123 15.646 43.928 15.9818 44.0308C16.361 44.1449 16.7498 44.2332 17.1354 44.328C17.4567 44.4067 17.7684 44.4967 18.0993 44.561C18.5427 44.6494 18.9926 44.7056 19.4425 44.7667C19.7205 44.8053 19.992 44.8599 20.2731 44.8872C21.0089 44.9595 21.7511 44.9997 22.4998 44.9997C23.2485 44.9997 23.9907 44.9595 24.7265 44.8872C25.0077 44.8599 25.2792 44.8053 25.5571 44.7667C26.007 44.7056 26.4568 44.6494 26.9003 44.561C27.2215 44.4967 27.5429 44.4003 27.8642 44.328C28.2498 44.2332 28.6386 44.1448 29.0178 44.0308C29.3536 43.928 29.6781 43.8027 30.0059 43.687C30.3336 43.5713 30.7063 43.446 31.0485 43.3046C31.3907 43.1632 31.7265 42.9977 32.0639 42.8387C32.3724 42.6925 32.6825 42.5543 32.9861 42.3937C33.3443 42.2025 33.6897 41.9921 34.0368 41.7833C34.2987 41.6226 34.5622 41.4764 34.8176 41.3013C35.1936 41.0539 35.5535 40.7856 35.9133 40.5172C36.1222 40.3565 36.3342 40.2119 36.5382 40.0481C36.919 39.7428 37.2805 39.4183 37.642 39.0841C37.7737 38.9636 37.9151 38.8577 38.0453 38.7323C38.0581 38.7211 38.063 38.7018 38.0758 38.6889C47.0352 30.1056 47.34 15.8846 38.7567 6.92544ZM35.1457 37.0067C34.8533 37.2638 34.5512 37.508 34.246 37.7442C34.0661 37.8824 33.8861 38.0189 33.7013 38.1507C33.4105 38.3612 33.1149 38.5604 32.8144 38.7516C32.596 38.8913 32.3727 39.0262 32.1477 39.158C31.8649 39.3187 31.5773 39.4793 31.2865 39.64C31.0294 39.7717 30.7675 39.8955 30.5041 40.0176C30.2407 40.1397 29.9498 40.2698 29.6655 40.3839C29.3811 40.498 29.0791 40.6056 28.7818 40.7052C28.5103 40.7984 28.2388 40.8948 27.964 40.9767C27.6427 41.0731 27.3069 41.1518 26.9743 41.2322C26.7141 41.2932 26.4571 41.3623 26.1936 41.4138C25.8128 41.4877 25.424 41.5391 25.0336 41.5921C24.8119 41.621 24.5918 41.6612 24.3684 41.6837C23.7514 41.7431 23.1265 41.7785 22.4951 41.7785C21.8637 41.7785 21.2387 41.7432 20.6218 41.6837C20.3985 41.6612 20.1784 41.621 19.9566 41.5921C19.5662 41.5391 19.1774 41.4877 18.7966 41.4138C18.5331 41.3624 18.276 41.2933 18.0158 41.2322C17.6833 41.1519 17.3523 41.0715 17.0262 40.9767C16.7515 40.8948 16.4799 40.7984 16.2084 40.7052C15.9112 40.6024 15.6139 40.4979 15.3247 40.3839C15.0355 40.2698 14.7624 40.1445 14.4861 40.0176C14.2097 39.8907 13.9607 39.7718 13.7037 39.64C13.4129 39.489 13.1253 39.3299 12.8425 39.158C12.6176 39.0263 12.3942 38.8913 12.1757 38.7516C11.8753 38.5604 11.5797 38.3612 11.2889 38.1507C11.1041 38.019 10.9242 37.8824 10.7442 37.7442C10.4389 37.508 10.1369 37.2622 9.84451 37.0067C9.77382 36.9537 9.70952 36.8862 9.64052 36.8251C9.71235 31.3598 13.2234 26.5339 18.4014 24.7835C20.9905 26.0151 23.9965 26.0151 26.5856 24.7835C31.7635 26.5339 35.2745 31.3597 35.3465 36.8251C35.279 36.8862 35.2147 36.9473 35.1457 37.0067ZM16.8911 12.8832C18.6307 9.78948 22.5488 8.69174 25.6425 10.4313C28.7362 12.1709 29.834 16.089 28.0944 19.1827C27.5172 20.2092 26.6691 21.0574 25.6425 21.6346C25.6345 21.6346 25.6248 21.6346 25.6152 21.6442C25.1891 21.8814 24.7389 22.0721 24.272 22.213C24.1885 22.2371 24.1113 22.2692 24.023 22.2901C23.8623 22.3319 23.6937 22.3608 23.5282 22.3897C23.2166 22.4442 22.9013 22.4758 22.5851 22.4845H22.4019C22.0857 22.4758 21.7704 22.4442 21.4588 22.3897C21.2981 22.3608 21.1278 22.3319 20.964 22.2901C20.8788 22.2692 20.8033 22.2371 20.715 22.213C20.2482 22.0721 19.798 21.8814 19.3719 21.6442L19.343 21.6346C16.2493 19.8951 15.1515 15.977 16.8911 12.8832ZM38.1966 33.6393C37.1656 28.8305 33.999 24.7537 29.5948 22.565C33.195 18.6431 32.9343 12.5452 29.0124 8.94488C25.0906 5.34459 18.9926 5.60535 15.3923 9.52721C12.0077 13.2142 12.0077 18.8781 15.3923 22.565C10.9881 24.7538 7.8215 28.8305 6.7905 33.6393C0.629768 24.9614 2.67029 12.9324 11.3482 6.77162C20.0261 0.610883 32.0551 2.65141 38.2159 11.3293C40.5317 14.5914 41.7749 18.4935 41.773 22.4942C41.773 26.4914 40.5224 30.3884 38.1966 33.6393Z" fill="#E0E2EE"/>
</g>
<defs>
<clipPath id="clip0">
<rect width="45" height="45" fill="white"/>
</clipPath>
</defs>
</svg>
